<svg xmlns="http://www.w3.org/2000/svg" width="212" height="189" viewBox="0 0 212 189" fill="none">
  <path d="M197.547 0L117.702 58.4406L132.249 26.3085L197.547 0Z" fill="#E2761B" stroke="#E2761B" stroke-linecap="round" stroke-linejoin="round"/>
  <path d="M14.4441 0L93.781 58.9386L80.0021 26.3085L14.4441 0Z" fill="#E4761B" stroke="#E4761B" stroke-linecap="round" stroke-linejoin="round"/>
  <path d="M168.894 135.049L147.953 166.117L193.233 177.952L206.314 135.784L168.894 135.049Z" fill="#E4761B" stroke="#E4761B" stroke-linecap="round" stroke-linejoin="round"/>
  <path d="M5.81494 135.784L18.7709 177.952L64.0509 166.117L43.1099 135.049L5.81494 135.784Z" fill="#E4761B" stroke="#E4761B" stroke-linecap="round" stroke-linejoin="round"/>
  <path d="M61.559 82.7889L49.3311 100.919L94.1151 102.886L92.5071 54.6276L61.559 82.7889Z" fill="#E4761B" stroke="#E4761B" stroke-linecap="round" stroke-linejoin="round"/>
  <path d="M150.431 82.7889L119.065 54.1296L117.875 102.886L162.533 100.919L150.431 82.7889Z" fill="#E4761B" stroke="#E4761B" stroke-linecap="round" stroke-linejoin="round"/>
  <path d="M64.0508 166.117L91.4427 153.55L67.9318 136.023L64.0508 166.117Z" fill="#E4761B" stroke="#E4761B" stroke-linecap="round" stroke-linejoin="round"/>
  <path d="M120.547 153.55L147.953 166.117L144.058 136.023L120.547 153.55Z" fill="#E4761B" stroke="#E4761B" stroke-linecap="round" stroke-linejoin="round"/>
  <path d="M147.953 166.117L120.547 153.55L122.822 170.331L122.62 177.454L147.953 166.117Z" fill="#D7C1B3" stroke="#D7C1B3" stroke-linecap="round" stroke-linejoin="round"/>
  <path d="M64.0508 166.117L89.3838 177.454L89.2438 170.331L91.4427 153.55L64.0508 166.117Z" fill="#D7C1B3" stroke="#D7C1B3" stroke-linecap="round" stroke-linejoin="round"/>
  <path d="M90.0288 124.948L67.4868 118.62L83.3128 111.75L90.0288 124.948Z" fill="#233447" stroke="#233447" stroke-linecap="round" stroke-linejoin="round"/>
  <path d="M121.961 124.948L128.677 111.75L144.628 118.62L121.961 124.948Z" fill="#233447" stroke="#233447" stroke-linecap="round" stroke-linejoin="round"/>
  <path d="M64.0501 166.117L68.1371 135.049L43.1111 135.784L64.0501 166.117Z" fill="#CD6116" stroke="#CD6116" stroke-linecap="round" stroke-linejoin="round"/>
  <path d="M143.752 135.049L147.953 166.117L168.892 135.784L143.752 135.049Z" fill="#CD6116" stroke="#CD6116" stroke-linecap="round" stroke-linejoin="round"/>
  <path d="M162.533 100.919L117.875 102.886L121.961 124.948L128.677 111.75L144.628 118.62L162.533 100.919Z" fill="#CD6116" stroke="#CD6116" stroke-linecap="round" stroke-linejoin="round"/>
  <path d="M67.4868 118.62L83.3128 111.75L90.0288 124.948L94.1148 102.886L49.3308 100.919L67.4868 118.62Z" fill="#CD6116" stroke="#CD6116" stroke-linecap="round" stroke-linejoin="round"/>
  <path d="M49.3311 100.919L67.9321 136.023L67.4871 118.62L49.3311 100.919Z" fill="#E4751F" stroke="#E4751F" stroke-linecap="round" stroke-linejoin="round"/>
  <path d="M144.626 118.62L144.058 136.023L162.533 100.919L144.626 118.62Z" fill="#E4751F" stroke="#E4751F" stroke-linecap="round" stroke-linejoin="round"/>
  <path d="M94.1148 102.886L90.0288 124.948L94.9328 150.752L96.3448 116.654L94.1148 102.886Z" fill="#E4751F" stroke="#E4751F" stroke-linecap="round" stroke-linejoin="round"/>
  <path d="M117.875 102.886L115.784 116.532L116.945 150.752L121.961 124.948L117.875 102.886Z" fill="#E4751F" stroke="#E4751F" stroke-linecap="round" stroke-linejoin="round"/>
  <path d="M121.961 124.948L116.945 150.752L120.547 153.55L144.058 136.023L144.626 118.62L121.961 124.948Z" fill="#F6851B" stroke="#F6851B" stroke-linecap="round" stroke-linejoin="round"/>
  <path d="M67.4868 118.62L67.9318 136.023L91.4427 153.55L94.9327 150.752L90.0288 124.948L67.4868 118.62Z" fill="#F6851B" stroke="#F6851B" stroke-linecap="round" stroke-linejoin="round"/>
  <path d="M122.62 177.454L122.822 170.331L120.687 168.45H91.2417L89.2428 170.331L89.3838 177.454L64.0508 166.117L72.9418 173.364L91.0578 185.824H120.871L139.101 173.364L147.953 166.117L122.62 177.454Z" fill="#C0AD9E" stroke="#C0AD9E" stroke-linecap="round" stroke-linejoin="round"/>
  <path d="M120.547 153.55L116.945 150.752H94.9331L91.4431 153.55L89.2441 170.331L91.2431 168.45H120.688L122.823 170.331L120.547 153.55Z" fill="#161616" stroke="#161616" stroke-linecap="round" stroke-linejoin="round"/>
  <path d="M200.493 64.0258L207.193 33.1866L197.547 0L120.547 58.4406L150.431 82.7889L192.719 94.2168L201.903 83.8936L197.963 81.0682L204.235 75.3316L199.303 71.6456L205.576 66.8557L200.493 64.0258Z" fill="#763D16" stroke="#763D16" stroke-linecap="round" stroke-linejoin="round"/>
  <path d="M4.80762 33.1866L11.5076 64.0258L6.35162 66.8557L12.6236 71.6456L7.75562 75.3316L14.0276 81.0682L10.0876 83.8936L19.1856 94.2168L61.4736 82.7889L91.3576 58.4406L14.3576 0L4.80762 33.1866Z" fill="#763D16" stroke="#763D16" stroke-linecap="round" stroke-linejoin="round"/>
  <path d="M192.718 94.2168L150.431 82.7889L162.533 100.919L144.058 136.023L168.892 135.784H206.312L192.718 94.2168Z" fill="#F6851B" stroke="#F6851B" stroke-linecap="round" stroke-linejoin="round"/>
  <path d="M61.4749 82.7889L19.1879 94.2168L5.81689 135.784H43.1119L67.9319 136.023L49.3309 100.919L61.4749 82.7889Z" fill="#F6851B" stroke="#F6851B" stroke-linecap="round" stroke-linejoin="round"/>
  <path d="M117.875 102.886L120.547 58.4406L132.368 26.3085H80.002L91.358 58.4406L94.115 102.886L94.933 116.654L94.961 150.752H116.973L117.077 116.654L117.875 102.886Z" fill="#F6851B" stroke="#F6851B" stroke-linecap="round" stroke-linejoin="round"/>
</svg> 